<?xml version="1.0" encoding="utf-8"?>
<!-- Generator: Adobe Illustrator 16.0.0, SVG Export Plug-In . SVG Version: 6.00 Build 0)  -->
<!DOCTYPE svg PUBLIC "-//W3C//DTD SVG 1.1//EN" "http://www.w3.org/Graphics/SVG/1.1/DTD/svg11.dtd">
<svg version="1.1" id="Layer_1" xmlns="http://www.w3.org/2000/svg" xmlns:xlink="http://www.w3.org/1999/xlink" x="0px" y="0px"
	 width="526.668px" height="564.667px" viewBox="248.5 26.5 526.668 564.667" enable-background="new 248.5 26.5 526.668 564.667"
	 xml:space="preserve">
<g>
	<g>
		<path fill="#FFFFFF" stroke="#FFFFFF" stroke-width="5" stroke-miterlimit="10" d="M770.048,223.027
			c0.614-1.229,0.614-2.458,0.614-3.687c0.614-20.89-23.347-95.232-70.041-129.024c-46.08-33.792-91.546-9.216-105.062-0.615
			l-25.19-18.432l25.19-30.105c2.457-2.458,1.843-6.759-0.614-8.602c-2.458-2.458-6.759-1.844-8.602,0.614l-60.826,73.113
			l-84.787,49.767c-11.674-9.831-54.682-39.322-105.062-9.831c-30.105,17.818-50.995,49.152-63.283,71.885
			c-4.301,8.602-19.661,39.936-19.046,51.61c0,0.614,0,0.614,0,1.229c0,0.615,0.615,1.229,0.615,1.843l0,0l0,0l0,0l0,0l0,0
			c0.614,1.229,2.458,2.458,3.686,3.072c8.602,4.301,29.491,7.987,54.682,7.987c19.661,0,42.394-2.458,62.669-8.602l0,0l0,0
			c9.831-3.072,19.661-6.758,28.262-12.288c48.538-28.877,44.852-79.258,42.394-95.232l76.8-44.852v100.147
			c-71.885,4.301-129.023,79.257-129.023,172.032c0,70.041,32.563,132.096,83.559,159.129c4.915,2.458,9.216,6.759,14.131,11.674
			c9.83,9.216,20.89,19.661,37.479,19.661c15.975,0,27.647-10.445,37.479-20.275c4.915-4.915,9.83-9.216,14.131-11.674
			c50.381-27.033,82.944-89.088,82.944-159.13c0-92.16-57.14-167.731-129.024-172.032V113.664l27.034-32.563l0,0l25.805,19.046
			c-4.301,15.36-13.518,65.741,32.562,99.533c28.263,20.889,65.127,27.648,91.546,30.105c4.301,0.614,13.517,0.614,23.348,0.614
			c12.288,0,25.19-0.614,31.334-3.687h0.614c0.614-0.614,1.229-1.229,1.844-1.843l0,0l0,0
			C769.434,224.256,770.048,223.642,770.048,223.027z M341.811,156.672c39.936-23.347,73.728-3.687,87.245,6.144l-35.635,20.89
			c-10.445-11.673-28.877-17.203-39.936-19.661c-6.144-1.229-12.902-1.843-19.046-2.458
			C336.896,159.744,339.354,157.901,341.811,156.672z M370.074,262.963c-9.216,2.458-18.432,4.301-27.648,5.529
			c11.673-19.661,10.445-37.478,8.602-46.08l37.478-22.118C394.035,221.798,377.446,258.048,370.074,262.963z M318.464,175.104
			c3.687-1.843,17.203-2.458,32.563,0.614c14.131,3.072,25.19,7.987,31.334,14.131l-37.478,22.118
			c-6.758-5.529-22.119-15.974-45.466-14.745C305.562,189.235,311.706,181.862,318.464,175.104z M290.816,210.125
			c20.275-3.687,35.021,3.072,42.394,8.602l-65.126,38.093C272.384,245.76,279.757,227.942,290.816,210.125z M274.842,267.264
			l65.126-38.093c0.615,9.216-0.614,25.19-13.517,40.55C305.562,270.95,287.129,269.107,274.842,267.264z M398.336,251.29
			c-2.458,1.843-5.529,3.072-8.602,4.301c9.216-17.817,15.975-43.623,9.83-62.054l35.636-20.89
			C437.043,190.464,436.429,228.557,398.336,251.29z M652.697,393.216c0,65.127-30.105,123.494-76.8,148.07
			c-6.144,3.072-11.674,8.602-17.203,13.517c-9.216,8.602-17.817,16.589-29.491,16.589s-19.661-7.987-28.877-16.589
			c-5.529-4.915-11.059-10.444-17.203-13.517c-46.694-24.576-76.8-82.943-76.8-148.07c0-85.401,51.609-155.443,116.736-159.744
			v12.288c0,3.687,2.457,6.144,6.144,6.144l0,0c3.687,0,6.145-2.458,6.145-6.144v-12.288
			C601.088,237.773,652.697,307.814,652.697,393.216z M642.867,138.854l35.021,25.805c-2.457,8.602-5.529,26.419,4.301,47.309
			c-9.216-1.843-18.432-4.915-27.033-8.602C648.396,197.837,634.88,159.744,642.867,138.854z M715.366,121.651
			c6.145,7.373,11.674,15.36,15.975,23.347c-22.732-3.072-38.707,5.529-46.08,10.445l-35.021-26.419
			c6.758-5.53,18.432-9.216,32.562-10.445C698.163,117.351,711.68,119.193,715.366,121.651z M738.714,159.129
			c9.216,19.046,14.745,36.864,17.817,48.538l-60.826-44.236C703.692,158.515,719.053,153.6,738.714,159.129z M693.248,100.147
			c2.457,1.843,4.915,3.686,7.373,5.529c-6.759-0.614-13.518,0-19.047,0.614c-11.059,1.229-30.105,4.301-41.779,15.36
			l-33.178-24.576C621.363,89.088,656.998,73.728,693.248,100.147z M599.245,107.52l33.177,24.576
			c-7.986,17.203-3.686,44.237,3.687,62.668c-2.457-1.843-5.529-3.072-7.987-4.915C591.258,162.202,595.559,123.494,599.245,107.52z
			 M697.549,215.04c-11.674-17.203-11.06-33.178-9.216-42.394l60.825,44.237C737.484,218.112,718.438,218.112,697.549,215.04z"/>
		<path fill="#FFFFFF" stroke="#FFFFFF" stroke-width="5" stroke-miterlimit="10" d="M544.563,529.613
			c-1.844,1.229-9.216,4.915-14.746,4.915c-5.529,0-12.902-3.687-15.359-4.915c-3.072-1.844-6.759-1.229-8.603,1.843
			c-1.843,3.072-1.229,6.759,1.844,8.602c1.229,0.614,11.674,7.373,21.504,7.373s20.89-6.145,21.504-7.373
			c3.072-1.843,3.687-5.529,1.844-8.602C551.321,528.384,547.635,527.77,544.563,529.613z"/>
		<path fill="#FFFFFF" stroke="#FFFFFF" stroke-width="5" stroke-miterlimit="10" d="M585.113,501.965
			c1.844,0,3.072-0.614,4.301-1.844c23.962-25.805,38.707-65.74,38.707-106.905c0-15.975-1.843-31.948-6.144-47.309
			c-0.614-3.072-4.301-4.915-7.373-4.301c-3.071,0.614-4.915,4.301-4.301,7.373c3.687,14.131,6.145,28.876,6.145,43.622
			c0,38.093-12.902,74.957-35.021,98.304c-2.458,2.458-2.458,6.145,0,8.602C582.042,501.351,583.271,501.965,585.113,501.965z"/>
		<path fill="#FFFFFF" stroke="#FFFFFF" stroke-width="5" stroke-miterlimit="10" d="M488.652,258.048
			c-3.071-1.229-6.758,0.615-7.372,4.301c-1.229,3.072,0.614,6.759,4.301,7.373c0.614,0,22.118,6.144,44.851,6.144
			c22.733,0,43.623-6.144,44.852-6.144c3.072-1.229,4.915-4.301,4.301-7.373c-0.614-3.072-4.301-4.915-7.373-4.301
			c0,0-20.275,6.144-41.164,6.144C508.928,264.192,488.652,258.048,488.652,258.048z"/>
	</g>
</g>
</svg>
