<?xml version="1.0" encoding="utf-8"?>
<!-- Generator: Adobe Illustrator 16.0.0, SVG Export Plug-In . SVG Version: 6.00 Build 0)  -->
<!DOCTYPE svg PUBLIC "-//W3C//DTD SVG 1.1//EN" "http://www.w3.org/Graphics/SVG/1.1/DTD/svg11.dtd">
<svg version="1.1" id="Layer_1" xmlns="http://www.w3.org/2000/svg" xmlns:xlink="http://www.w3.org/1999/xlink" x="0px" y="0px"
	 width="443.978px" height="523.474px" viewBox="289.602 50.607 443.978 523.474"
	 enable-background="new 289.602 50.607 443.978 523.474" xml:space="preserve">
<path id="martini" fill="#FFFFFF" stroke="#FFFFFF" stroke-width="7" stroke-miterlimit="10" d="M728.638,114.155
	c2.375-2.423,2.336-6.313-0.087-8.688c-1.157-1.134-2.716-1.766-4.337-1.756h-77.537l36.249-38.216
	c2.342-2.46,2.245-6.353-0.215-8.694s-6.353-2.245-8.693,0.215l0,0l-44.299,46.633H302.551c-3.393-0.02-6.16,2.714-6.18,6.107
	c-0.01,1.621,0.622,3.18,1.756,4.337l196.608,202.751V522.24l-60.396,34.345c-2.952,1.673-3.989,5.423-2.316,8.374
	c1.088,1.92,3.121,3.108,5.327,3.115h152.31c3.394-0.011,6.136-2.77,6.125-6.162c-0.006-2.206-1.195-4.239-3.114-5.327
	l-60.396-34.345v-205.64L728.638,114.155z M523.06,531.148l43.314,24.576H460.329l43.315-24.576
	c1.932-1.086,3.129-3.129,3.133-5.345V314.143c0.01-1.603-0.607-3.146-1.72-4.301L317.051,115.999h301.057l-43.009,45.466
	c-17.457-12.514-41.754-8.506-54.268,8.952c-10.152,14.164-9.644,33.353,1.245,46.958l-16.404,17.326
	c-2.342,2.46-2.245,6.353,0.215,8.694s6.353,2.245,8.693-0.215l16.527-17.449c18.014,11.699,42.101,6.58,53.8-11.434
	c8.726-13.436,8.32-30.848-1.022-43.862l50.995-54.436h74.834L521.707,309.842c-1.112,1.154-1.729,2.698-1.72,4.301v211.661
	C519.979,528.007,521.15,530.047,523.06,531.148z M579.031,193.229c-0.034,14.712-11.952,26.631-26.665,26.665
	c-4.457-0.033-8.833-1.195-12.718-3.379l35.389-37.233C577.645,183.467,579.027,188.298,579.031,193.229L579.031,193.229z
	 M525.701,193.229c0.033-14.713,11.952-26.631,26.665-26.665c4.937,0.022,9.768,1.427,13.946,4.055l-35.881,37.724
	c-3.104-4.431-4.775-9.705-4.792-15.114H525.701z"/>
<line id="drink-line" fill="none" stroke="#FFFFFF" stroke-width="11" stroke-miterlimit="10" x1="334.6" y1="144.102" x2="697.582" y2="144.102"/>
</svg>
