<?xml version="1.0" encoding="utf-8"?>
<!-- Generator: Adobe Illustrator 16.0.0, SVG Export Plug-In . SVG Version: 6.00 Build 0)  -->
<!DOCTYPE svg PUBLIC "-//W3C//DTD SVG 1.1//EN" "http://www.w3.org/Graphics/SVG/1.1/DTD/svg11.dtd">
<svg version="1.1" id="Layer_1" xmlns="http://www.w3.org/2000/svg" xmlns:xlink="http://www.w3.org/1999/xlink" x="0px" y="0px"
	 width="314px" height="616.5px" viewBox="344.5 0 314 616.5" enable-background="new 344.5 0 314 616.5" xml:space="preserve">
<g>
	<path fill="#FCFCFC" d="M624.38,221.798c0-0.614,0-1.229,0-1.843v-0.614l-9.83-33.792l0,0c0,0,0,0,0-0.614l-14.746-48.538
		c-4.301-12.288-11.059-32.563-30.105-32.563h-6.144V49.152c0-10.445-7.987-18.432-18.433-18.432h-86.63
		c-10.445,0-18.433,7.987-18.433,18.432v55.296h-6.144c-18.432,0-25.19,17.817-30.72,32.563l-24.576,82.33v0.614
		c0,0.614,0,1.229,0,1.843c0,0,0,0,0,0.614l61.439,350.208c0.615,2.457,1.844,4.301,4.301,4.915c0.615,0,20.89,6.144,57.14,6.144
		s56.524-6.144,57.139-6.144c2.458-0.614,3.687-2.458,4.302-4.915l54.681-311.501l0,0L624.38,221.798
		C624.38,222.413,624.38,221.798,624.38,221.798z M550.652,49.152v55.296h-61.44v-61.44h55.296
		C548.194,43.008,550.652,45.466,550.652,49.152z M452.348,49.152c0-3.686,2.458-6.144,6.145-6.144h18.432v61.44h-24.576V49.152z
		 M414.869,140.698c6.145-16.589,10.445-23.962,19.047-23.962h135.168c7.987,0,12.902,6.144,18.432,23.962l12.288,41.779
		c-17.203,3.687-49.151,7.987-98.918,7.987c-3.687,0-6.145,2.458-6.145,6.144s2.458,6.144,6.145,6.144
		c51.609,0,84.787-4.915,102.604-8.602l6.759,22.733c-12.288,3.072-46.694,10.445-108.749,10.445s-96.461-7.373-109.363-10.445
		L414.869,140.698z M551.267,566.477c-6.759,1.844-23.962,4.915-49.767,4.915s-43.008-3.071-49.767-4.915l-58.982-336.691
		c15.36,3.687,49.767,9.831,108.749,9.831s93.389-6.144,108.749-9.831l-4.301,25.19c-14.746,3.072-47.924,9.216-104.448,9.216
		c-3.687,0-6.145,2.458-6.145,6.144s2.458,6.144,6.145,6.144c50.995,0,83.559-4.915,101.99-8.602L551.267,566.477z"/>
	<path fill="#FCFCFC" d="M524.232,533.299c-12.902,1.229-27.647,1.229-41.164,0.615l-46.694-264.807
		c-0.615-3.072-3.687-5.53-7.373-4.916c-3.072,0.615-5.53,3.687-4.915,7.373l47.923,269.107c0.614,2.458,2.458,4.915,5.529,4.915
		c7.373,0.614,15.975,1.229,23.962,1.229c8.602,0,16.589-0.615,23.962-1.229c3.071-0.614,6.144-3.071,5.529-6.758
		C530.991,535.757,527.919,533.299,524.232,533.299z"/>
</g>
</svg>
